{
	"patcher" : 	{
		"fileversion" : 1,
		"rect" : [ 6.0, 65.0, 1076.0, 681.0 ],
		"bglocked" : 0,
		"defrect" : [ 6.0, 65.0, 1076.0, 681.0 ],
		"openrect" : [ 0.0, 0.0, 0.0, 0.0 ],
		"openinpresentation" : 1,
		"default_fontsize" : 10.0,
		"default_fontface" : 0,
		"default_fontname" : "Verdana",
		"gridonopen" : 0,
		"gridsize" : [ 5.0, 5.0 ],
		"gridsnaponopen" : 0,
		"toolbarvisible" : 1,
		"boxanimatetime" : 200,
		"imprint" : 0,
		"enablehscroll" : 1,
		"enablevscroll" : 1,
		"devicewidth" : 0.0,
		"boxes" : [ 			{
				"box" : 				{
					"id" : "obj-3",
					"maxclass" : "toggle",
					"numinlets" : 1,
					"numoutlets" : 1,
					"outlettype" : [ "int" ],
					"patching_rect" : [ 453.0, 537.0, 20.0, 20.0 ],
					"presentation" : 1,
					"presentation_rect" : [ 245.0, 83.0, 20.0, 20.0 ]
				}

			}
, 			{
				"box" : 				{
					"fontname" : "Verdana",
					"fontsize" : 10.0,
					"id" : "obj-10",
					"maxclass" : "comment",
					"numinlets" : 1,
					"numoutlets" : 0,
					"patching_rect" : [ 355.0, 538.0, 95.0, 19.0 ],
					"presentation" : 1,
					"presentation_rect" : [ 160.0, 84.0, 85.0, 19.0 ],
					"text" : "loop trajectory"
				}

			}
, 			{
				"box" : 				{
					"fontname" : "Verdana",
					"fontsize" : 10.0,
					"id" : "obj-13",
					"maxclass" : "newobj",
					"numinlets" : 1,
					"numoutlets" : 3,
					"outlettype" : [ "", "", "" ],
					"patching_rect" : [ 481.0, 536.0, 550.0, 19.0 ],
					"text" : "jcom.message loop @type none @range/clipmode both @repetitions/allow 1 @description \"lops trajectory\"",
					"varname" : "parameter[1]"
				}

			}
, 			{
				"box" : 				{
					"id" : "obj-9",
					"maxclass" : "toggle",
					"numinlets" : 1,
					"numoutlets" : 1,
					"outlettype" : [ "int" ],
					"patching_rect" : [ 449.0, 238.0, 20.0, 20.0 ],
					"presentation" : 1,
					"presentation_rect" : [ 105.0, 83.0, 20.0, 20.0 ]
				}

			}
, 			{
				"box" : 				{
					"fontname" : "Verdana",
					"fontsize" : 10.0,
					"id" : "obj-40",
					"maxclass" : "comment",
					"numinlets" : 1,
					"numoutlets" : 0,
					"patching_rect" : [ 357.0, 492.0, 73.0, 19.0 ],
					"presentation" : 1,
					"presentation_rect" : [ 174.0, 62.0, 73.0, 19.0 ],
					"text" : "refresh rate"
				}

			}
, 			{
				"box" : 				{
					"fontname" : "Verdana",
					"fontsize" : 10.0,
					"id" : "obj-43",
					"maxclass" : "flonum",
					"numinlets" : 1,
					"numoutlets" : 2,
					"outlettype" : [ "float", "bang" ],
					"patching_rect" : [ 424.0, 491.0, 50.0, 19.0 ],
					"presentation" : 1,
					"presentation_rect" : [ 245.0, 62.0, 50.0, 19.0 ]
				}

			}
, 			{
				"box" : 				{
					"fontname" : "Verdana",
					"fontsize" : 10.0,
					"id" : "obj-31",
					"maxclass" : "comment",
					"numinlets" : 1,
					"numoutlets" : 0,
					"patching_rect" : [ 315.0, 446.0, 112.0, 19.0 ],
					"presentation" : 1,
					"presentation_rect" : [ 165.0, 42.0, 82.0, 19.0 ],
					"text" : "mixpad y size"
				}

			}
, 			{
				"box" : 				{
					"fontname" : "Verdana",
					"fontsize" : 10.0,
					"id" : "obj-32",
					"maxclass" : "flonum",
					"numinlets" : 1,
					"numoutlets" : 2,
					"outlettype" : [ "float", "bang" ],
					"patching_rect" : [ 423.0, 445.0, 50.0, 19.0 ],
					"presentation" : 1,
					"presentation_rect" : [ 245.0, 42.0, 50.0, 19.0 ]
				}

			}
, 			{
				"box" : 				{
					"fontname" : "Verdana",
					"fontsize" : 10.0,
					"id" : "obj-28",
					"maxclass" : "comment",
					"numinlets" : 1,
					"numoutlets" : 0,
					"patching_rect" : [ 312.0, 408.0, 112.0, 19.0 ],
					"presentation" : 1,
					"presentation_rect" : [ 165.0, 22.0, 81.0, 19.0 ],
					"text" : "mixpad x size"
				}

			}
, 			{
				"box" : 				{
					"fontname" : "Verdana",
					"fontsize" : 10.0,
					"id" : "obj-29",
					"maxclass" : "flonum",
					"numinlets" : 1,
					"numoutlets" : 2,
					"outlettype" : [ "float", "bang" ],
					"patching_rect" : [ 420.0, 407.0, 50.0, 19.0 ],
					"presentation" : 1,
					"presentation_rect" : [ 245.0, 22.0, 50.0, 19.0 ]
				}

			}
, 			{
				"box" : 				{
					"fontname" : "Verdana",
					"fontsize" : 10.0,
					"id" : "obj-22",
					"maxclass" : "comment",
					"numinlets" : 1,
					"numoutlets" : 0,
					"patching_rect" : [ 314.0, 358.0, 112.0, 19.0 ],
					"presentation" : 1,
					"presentation_rect" : [ 10.0, 62.0, 112.0, 19.0 ],
					"text" : "vert. acceleration"
				}

			}
, 			{
				"box" : 				{
					"fontname" : "Verdana",
					"fontsize" : 10.0,
					"id" : "obj-25",
					"maxclass" : "flonum",
					"numinlets" : 1,
					"numoutlets" : 2,
					"outlettype" : [ "float", "bang" ],
					"patching_rect" : [ 420.0, 357.0, 50.0, 19.0 ],
					"presentation" : 1,
					"presentation_rect" : [ 105.0, 62.0, 50.0, 19.0 ]
				}

			}
, 			{
				"box" : 				{
					"fontname" : "Verdana",
					"fontsize" : 10.0,
					"id" : "obj-18",
					"maxclass" : "comment",
					"numinlets" : 1,
					"numoutlets" : 0,
					"patching_rect" : [ 314.0, 310.0, 106.0, 19.0 ],
					"presentation" : 1,
					"presentation_rect" : [ 10.0, 42.0, 106.0, 19.0 ],
					"text" : "horiz. waving"
				}

			}
, 			{
				"box" : 				{
					"fontname" : "Verdana",
					"fontsize" : 10.0,
					"id" : "obj-19",
					"maxclass" : "flonum",
					"numinlets" : 1,
					"numoutlets" : 2,
					"outlettype" : [ "float", "bang" ],
					"patching_rect" : [ 415.0, 309.0, 50.0, 19.0 ],
					"presentation" : 1,
					"presentation_rect" : [ 105.0, 42.0, 50.0, 19.0 ]
				}

			}
, 			{
				"box" : 				{
					"fontname" : "Verdana",
					"fontsize" : 10.0,
					"id" : "obj-15",
					"maxclass" : "comment",
					"numinlets" : 1,
					"numoutlets" : 0,
					"patching_rect" : [ 313.0, 275.0, 106.0, 19.0 ],
					"presentation" : 1,
					"presentation_rect" : [ 10.0, 22.0, 106.0, 19.0 ],
					"text" : "traj. duration"
				}

			}
, 			{
				"box" : 				{
					"fontname" : "Verdana",
					"fontsize" : 10.0,
					"id" : "obj-14",
					"maxclass" : "flonum",
					"numinlets" : 1,
					"numoutlets" : 2,
					"outlettype" : [ "float", "bang" ],
					"patching_rect" : [ 414.0, 274.0, 50.0, 19.0 ],
					"presentation" : 1,
					"presentation_rect" : [ 105.0, 22.0, 50.0, 19.0 ]
				}

			}
, 			{
				"box" : 				{
					"fontname" : "Verdana",
					"fontsize" : 10.0,
					"id" : "obj-11",
					"maxclass" : "comment",
					"numinlets" : 1,
					"numoutlets" : 0,
					"patching_rect" : [ 351.0, 239.0, 95.0, 19.0 ],
					"presentation" : 1,
					"presentation_rect" : [ 10.0, 84.0, 101.0, 19.0 ],
					"text" : "trigger trajectory"
				}

			}
, 			{
				"box" : 				{
					"fontname" : "Verdana",
					"fontsize" : 10.0,
					"id" : "obj-20",
					"linecount" : 2,
					"maxclass" : "comment",
					"numinlets" : 1,
					"numoutlets" : 0,
					"patching_rect" : [ 240.0, 153.0, 199.0, 31.0 ],
					"text" : "<-- this message creates your xml preset file and a default state "
				}

			}
, 			{
				"box" : 				{
					"fontname" : "Verdana",
					"fontsize" : 10.0,
					"id" : "obj-2",
					"maxclass" : "comment",
					"numinlets" : 1,
					"numoutlets" : 0,
					"patching_rect" : [ 189.0, 131.0, 275.0, 19.0 ],
					"text" : "<-- this message creates your html reference page "
				}

			}
, 			{
				"box" : 				{
					"fontname" : "Verdana",
					"fontsize" : 10.0,
					"id" : "obj-6",
					"maxclass" : "message",
					"numinlets" : 2,
					"numoutlets" : 1,
					"outlettype" : [ "" ],
					"patching_rect" : [ 42.0, 154.0, 198.0, 17.0 ],
					"text" : "/preset/store 1 default, /preset/write"
				}

			}
, 			{
				"box" : 				{
					"fontname" : "Verdana",
					"fontsize" : 10.0,
					"id" : "obj-7",
					"maxclass" : "message",
					"numinlets" : 2,
					"numoutlets" : 1,
					"outlettype" : [ "" ],
					"patching_rect" : [ 42.0, 132.0, 145.0, 17.0 ],
					"text" : "/documentation/generate"
				}

			}
, 			{
				"box" : 				{
					"fontname" : "Verdana",
					"fontsize" : 10.0,
					"frgb" : [ 0.709804, 0.101961, 0.101961, 1.0 ],
					"id" : "obj-26",
					"linecount" : 3,
					"maxclass" : "comment",
					"numinlets" : 1,
					"numoutlets" : 0,
					"patching_rect" : [ 171.0, 86.0, 305.0, 43.0 ],
					"text" : "In order to create all jcom.parameters/messages/returns, you can use the jcom.parameterCreate utility to the left : just double-click on it and choose the desired attributes",
					"textcolor" : [ 0.709804, 0.101961, 0.101961, 1.0 ]
				}

			}
, 			{
				"box" : 				{
					"fontname" : "Verdana",
					"fontsize" : 10.0,
					"id" : "obj-8",
					"maxclass" : "newobj",
					"numinlets" : 0,
					"numoutlets" : 1,
					"outlettype" : [ "" ],
					"patching_rect" : [ 40.0, 108.0, 131.0, 19.0 ],
					"text" : "jcom.parameterCreate"
				}

			}
, 			{
				"box" : 				{
					"fontname" : "Verdana",
					"fontsize" : 10.0,
					"hidden" : 1,
					"id" : "obj-5",
					"maxclass" : "comment",
					"numinlets" : 1,
					"numoutlets" : 0,
					"patching_rect" : [ 623.0, 44.0, 157.0, 19.0 ],
					"text" : "first switch to patching mode"
				}

			}
, 			{
				"box" : 				{
					"fontname" : "Verdana",
					"fontsize" : 14.0,
					"id" : "obj-4",
					"maxclass" : "newobj",
					"numinlets" : 0,
					"numoutlets" : 0,
					"patcher" : 					{
						"fileversion" : 1,
						"rect" : [ 25.0, 69.0, 490.0, 315.0 ],
						"bglocked" : 0,
						"defrect" : [ 25.0, 69.0, 490.0, 315.0 ],
						"openrect" : [ 0.0, 0.0, 0.0, 0.0 ],
						"openinpresentation" : 0,
						"default_fontsize" : 10.0,
						"default_fontface" : 0,
						"default_fontname" : "Verdana",
						"gridonopen" : 0,
						"gridsize" : [ 5.0, 5.0 ],
						"gridsnaponopen" : 0,
						"toolbarvisible" : 1,
						"boxanimatetime" : 200,
						"imprint" : 0,
						"enablehscroll" : 1,
						"enablevscroll" : 1,
						"devicewidth" : 0.0,
						"boxes" : [ 							{
								"box" : 								{
									"fontname" : "Verdana",
									"fontsize" : 12.0,
									"id" : "obj-1",
									"linecount" : 2,
									"maxclass" : "comment",
									"numinlets" : 1,
									"numoutlets" : 0,
									"patching_rect" : [ 20.0, 21.0, 340.0, 36.0 ],
									"text" : "here you can type any note you want, that will help understand your patch and its current usability"
								}

							}
 ],
						"lines" : [  ]
					}
,
					"patching_rect" : [ 490.0, 45.0, 122.0, 24.0 ],
					"saved_object_attributes" : 					{
						"fontname" : "Verdana",
						"default_fontface" : 0,
						"globalpatchername" : "",
						"default_fontname" : "Verdana",
						"fontface" : 0,
						"fontsize" : 10.0,
						"default_fontsize" : 10.0
					}
,
					"text" : "p notes_&_bugs"
				}

			}
, 			{
				"box" : 				{
					"fontname" : "Verdana",
					"fontsize" : 14.0,
					"id" : "obj-44",
					"maxclass" : "newobj",
					"numinlets" : 0,
					"numoutlets" : 0,
					"patcher" : 					{
						"fileversion" : 1,
						"rect" : [ 50.0, 94.0, 473.0, 294.0 ],
						"bglocked" : 0,
						"defrect" : [ 50.0, 94.0, 473.0, 294.0 ],
						"openrect" : [ 0.0, 0.0, 0.0, 0.0 ],
						"openinpresentation" : 0,
						"default_fontsize" : 12.0,
						"default_fontface" : 0,
						"default_fontname" : "Verdana",
						"gridonopen" : 0,
						"gridsize" : [ 5.0, 5.0 ],
						"gridsnaponopen" : 0,
						"toolbarvisible" : 1,
						"boxanimatetime" : 200,
						"imprint" : 0,
						"enablehscroll" : 1,
						"enablevscroll" : 1,
						"devicewidth" : 0.0,
						"boxes" : [ 							{
								"box" : 								{
									"fontname" : "Verdana",
									"fontsize" : 10.0,
									"hidden" : 1,
									"id" : "obj-12",
									"maxclass" : "newobj",
									"numinlets" : 1,
									"numoutlets" : 0,
									"patcher" : 									{
										"fileversion" : 1,
										"rect" : [ 75.0, 119.0, 262.0, 204.0 ],
										"bglocked" : 0,
										"defrect" : [ 75.0, 119.0, 262.0, 204.0 ],
										"openrect" : [ 0.0, 0.0, 0.0, 0.0 ],
										"openinpresentation" : 0,
										"default_fontsize" : 10.0,
										"default_fontface" : 0,
										"default_fontname" : "Verdana",
										"gridonopen" : 0,
										"gridsize" : [ 5.0, 5.0 ],
										"gridsnaponopen" : 0,
										"toolbarvisible" : 1,
										"boxanimatetime" : 200,
										"imprint" : 0,
										"enablehscroll" : 1,
										"enablevscroll" : 1,
										"devicewidth" : 0.0,
										"boxes" : [ 											{
												"box" : 												{
													"fontname" : "Verdana",
													"fontsize" : 10.0,
													"id" : "obj-21",
													"maxclass" : "newobj",
													"numinlets" : 2,
													"numoutlets" : 2,
													"outlettype" : [ "", "" ],
													"patching_rect" : [ 55.0, 70.0, 48.0, 19.0 ],
													"text" : "zl nth 2"
												}

											}
, 											{
												"box" : 												{
													"fontname" : "Verdana",
													"fontsize" : 10.0,
													"id" : "obj-20",
													"maxclass" : "newobj",
													"numinlets" : 1,
													"numoutlets" : 1,
													"outlettype" : [ "" ],
													"patching_rect" : [ 55.0, 95.0, 147.0, 19.0 ],
													"text" : "sprintf load %s.maxref.xml"
												}

											}
, 											{
												"box" : 												{
													"fontname" : "Verdana",
													"fontsize" : 10.0,
													"id" : "obj-19",
													"maxclass" : "newobj",
													"numinlets" : 1,
													"numoutlets" : 1,
													"outlettype" : [ "" ],
													"patching_rect" : [ 55.0, 120.0, 51.0, 19.0 ],
													"text" : "pcontrol"
												}

											}
, 											{
												"box" : 												{
													"comment" : "",
													"id" : "obj-24",
													"maxclass" : "inlet",
													"numinlets" : 0,
													"numoutlets" : 1,
													"outlettype" : [ "" ],
													"patching_rect" : [ 55.0, 40.0, 25.0, 25.0 ]
												}

											}
 ],
										"lines" : [ 											{
												"patchline" : 												{
													"destination" : [ "obj-19", 0 ],
													"hidden" : 0,
													"midpoints" : [  ],
													"source" : [ "obj-20", 0 ]
												}

											}
, 											{
												"patchline" : 												{
													"destination" : [ "obj-20", 0 ],
													"hidden" : 0,
													"midpoints" : [  ],
													"source" : [ "obj-21", 0 ]
												}

											}
, 											{
												"patchline" : 												{
													"destination" : [ "obj-21", 0 ],
													"hidden" : 0,
													"midpoints" : [  ],
													"source" : [ "obj-24", 0 ]
												}

											}
 ]
									}
,
									"patching_rect" : [ 225.0, 250.0, 95.0, 19.0 ],
									"saved_object_attributes" : 									{
										"fontname" : "Verdana",
										"default_fontface" : 0,
										"globalpatchername" : "",
										"default_fontname" : "Verdana",
										"fontface" : 0,
										"fontsize" : 10.0,
										"default_fontsize" : 10.0
									}
,
									"text" : "p openReference"
								}

							}
, 							{
								"box" : 								{
									"bgcolor" : [ 0.698039, 0.698039, 0.698039, 0.0 ],
									"bgcolor2" : [ 0.698039, 0.698039, 0.698039, 0.0 ],
									"fontface" : 2,
									"fontname" : "Verdana",
									"fontsize" : 12.0,
									"frozen_box_attributes" : [ "gradient" ],
									"gradient" : 0,
									"id" : "obj-13",
									"maxclass" : "message",
									"numinlets" : 2,
									"numoutlets" : 1,
									"outlettype" : [ "" ],
									"patching_rect" : [ 10.0, 250.0, 162.0, 19.0 ],
									"text" : "open jcom.hub reference"
								}

							}
, 							{
								"box" : 								{
									"fontname" : "Verdana",
									"fontsize" : 10.0,
									"hidden" : 1,
									"id" : "obj-1",
									"maxclass" : "newobj",
									"numinlets" : 1,
									"numoutlets" : 0,
									"patcher" : 									{
										"fileversion" : 1,
										"rect" : [ 75.0, 119.0, 262.0, 204.0 ],
										"bglocked" : 0,
										"defrect" : [ 75.0, 119.0, 262.0, 204.0 ],
										"openrect" : [ 0.0, 0.0, 0.0, 0.0 ],
										"openinpresentation" : 0,
										"default_fontsize" : 10.0,
										"default_fontface" : 0,
										"default_fontname" : "Verdana",
										"gridonopen" : 0,
										"gridsize" : [ 5.0, 5.0 ],
										"gridsnaponopen" : 0,
										"toolbarvisible" : 1,
										"boxanimatetime" : 200,
										"imprint" : 0,
										"enablehscroll" : 1,
										"enablevscroll" : 1,
										"devicewidth" : 0.0,
										"boxes" : [ 											{
												"box" : 												{
													"fontname" : "Verdana",
													"fontsize" : 10.0,
													"id" : "obj-21",
													"maxclass" : "newobj",
													"numinlets" : 2,
													"numoutlets" : 2,
													"outlettype" : [ "", "" ],
													"patching_rect" : [ 55.0, 70.0, 48.0, 19.0 ],
													"text" : "zl nth 2"
												}

											}
, 											{
												"box" : 												{
													"fontname" : "Verdana",
													"fontsize" : 10.0,
													"id" : "obj-20",
													"maxclass" : "newobj",
													"numinlets" : 1,
													"numoutlets" : 1,
													"outlettype" : [ "" ],
													"patching_rect" : [ 55.0, 95.0, 147.0, 19.0 ],
													"text" : "sprintf load %s.maxref.xml"
												}

											}
, 											{
												"box" : 												{
													"fontname" : "Verdana",
													"fontsize" : 10.0,
													"id" : "obj-19",
													"maxclass" : "newobj",
													"numinlets" : 1,
													"numoutlets" : 1,
													"outlettype" : [ "" ],
													"patching_rect" : [ 55.0, 120.0, 51.0, 19.0 ],
													"text" : "pcontrol"
												}

											}
, 											{
												"box" : 												{
													"comment" : "",
													"id" : "obj-24",
													"maxclass" : "inlet",
													"numinlets" : 0,
													"numoutlets" : 1,
													"outlettype" : [ "" ],
													"patching_rect" : [ 55.0, 40.0, 25.0, 25.0 ]
												}

											}
 ],
										"lines" : [ 											{
												"patchline" : 												{
													"destination" : [ "obj-19", 0 ],
													"hidden" : 0,
													"midpoints" : [  ],
													"source" : [ "obj-20", 0 ]
												}

											}
, 											{
												"patchline" : 												{
													"destination" : [ "obj-20", 0 ],
													"hidden" : 0,
													"midpoints" : [  ],
													"source" : [ "obj-21", 0 ]
												}

											}
, 											{
												"patchline" : 												{
													"destination" : [ "obj-21", 0 ],
													"hidden" : 0,
													"midpoints" : [  ],
													"source" : [ "obj-24", 0 ]
												}

											}
 ]
									}
,
									"patching_rect" : [ 225.0, 225.0, 95.0, 19.0 ],
									"saved_object_attributes" : 									{
										"fontname" : "Verdana",
										"default_fontface" : 0,
										"globalpatchername" : "",
										"default_fontname" : "Verdana",
										"fontface" : 0,
										"fontsize" : 10.0,
										"default_fontsize" : 10.0
									}
,
									"text" : "p openReference"
								}

							}
, 							{
								"box" : 								{
									"bgcolor" : [ 0.698039, 0.698039, 0.698039, 0.0 ],
									"bgcolor2" : [ 0.698039, 0.698039, 0.698039, 0.0 ],
									"fontface" : 2,
									"fontname" : "Verdana",
									"fontsize" : 12.0,
									"frozen_box_attributes" : [ "gradient" ],
									"gradient" : 0,
									"id" : "obj-17",
									"maxclass" : "message",
									"numinlets" : 2,
									"numoutlets" : 1,
									"outlettype" : [ "" ],
									"patching_rect" : [ 10.0, 225.0, 202.0, 19.0 ],
									"text" : "open jcom.parameter reference"
								}

							}
, 							{
								"box" : 								{
									"fontname" : "Verdana",
									"fontsize" : 10.0,
									"id" : "obj-4",
									"linecount" : 3,
									"maxclass" : "comment",
									"numinlets" : 1,
									"numoutlets" : 0,
									"patching_rect" : [ 35.0, 140.0, 370.0, 43.0 ],
									"text" : "If you need to return messages from your algorithm to the rest of the world. you can specify type, range... etc as in jcom.parameter or jcom.message"
								}

							}
, 							{
								"box" : 								{
									"fontname" : "Verdana",
									"fontsize" : 10.0,
									"id" : "obj-5",
									"maxclass" : "comment",
									"numinlets" : 1,
									"numoutlets" : 0,
									"patching_rect" : [ 10.0, 120.0, 380.0, 19.0 ],
									"text" : "jcom.return:"
								}

							}
, 							{
								"box" : 								{
									"fontname" : "Verdana",
									"fontsize" : 10.0,
									"id" : "obj-6",
									"linecount" : 2,
									"maxclass" : "comment",
									"numinlets" : 1,
									"numoutlets" : 0,
									"patching_rect" : [ 35.0, 80.0, 342.0, 31.0 ],
									"text" : "If you need to send messages to or within the patch, but it's not required that they be stored or retrieveable, use jcom.message."
								}

							}
, 							{
								"box" : 								{
									"fontname" : "Verdana",
									"fontsize" : 10.0,
									"id" : "obj-7",
									"maxclass" : "comment",
									"numinlets" : 1,
									"numoutlets" : 0,
									"patching_rect" : [ 10.0, 60.0, 366.0, 19.0 ],
									"text" : "jcom.message:"
								}

							}
, 							{
								"box" : 								{
									"fontname" : "Verdana",
									"fontsize" : 10.0,
									"id" : "obj-8",
									"maxclass" : "comment",
									"numinlets" : 1,
									"numoutlets" : 0,
									"patching_rect" : [ 35.0, 30.0, 402.0, 19.0 ],
									"text" : "Use this for any parameters that you'd like to be able to store and retrieve."
								}

							}
, 							{
								"box" : 								{
									"fontname" : "Verdana",
									"fontsize" : 10.0,
									"id" : "obj-9",
									"maxclass" : "comment",
									"numinlets" : 1,
									"numoutlets" : 0,
									"patching_rect" : [ 10.0, 10.0, 293.0, 19.0 ],
									"text" : "jcom.parameter:"
								}

							}
 ],
						"lines" : [ 							{
								"patchline" : 								{
									"destination" : [ "obj-12", 0 ],
									"hidden" : 1,
									"midpoints" : [  ],
									"source" : [ "obj-13", 0 ]
								}

							}
, 							{
								"patchline" : 								{
									"destination" : [ "obj-1", 0 ],
									"hidden" : 1,
									"midpoints" : [  ],
									"source" : [ "obj-17", 0 ]
								}

							}
 ]
					}
,
					"patching_rect" : [ 490.0, 15.0, 271.0, 24.0 ],
					"saved_object_attributes" : 					{
						"fontname" : "Verdana",
						"default_fontface" : 0,
						"globalpatchername" : "",
						"default_fontname" : "Verdana",
						"fontface" : 0,
						"fontsize" : 12.0,
						"default_fontsize" : 12.0
					}
,
					"text" : "p read_me_for_programming_details"
				}

			}
, 			{
				"box" : 				{
					"fontname" : "Verdana",
					"fontsize" : 10.0,
					"id" : "obj-42",
					"maxclass" : "newobj",
					"numinlets" : 1,
					"numoutlets" : 0,
					"patcher" : 					{
						"fileversion" : 1,
						"rect" : [ 400.0, 200.0, 700.0, 526.0 ],
						"bgcolor" : [ 0.188235, 0.188235, 0.188235, 1.0 ],
						"bglocked" : 0,
						"defrect" : [ 400.0, 200.0, 700.0, 526.0 ],
						"openrect" : [ 0.0, 0.0, 0.0, 0.0 ],
						"openinpresentation" : 0,
						"default_fontsize" : 10.0,
						"default_fontface" : 0,
						"default_fontname" : "Verdana",
						"gridonopen" : 0,
						"gridsize" : [ 5.0, 5.0 ],
						"gridsnaponopen" : 0,
						"toolbarvisible" : 1,
						"boxanimatetime" : 200,
						"imprint" : 0,
						"enablehscroll" : 1,
						"enablevscroll" : 1,
						"devicewidth" : 0.0,
						"boxes" : [ 							{
								"box" : 								{
									"fontname" : "Verdana",
									"fontsize" : 10.0,
									"hidden" : 1,
									"id" : "obj-20",
									"maxclass" : "newobj",
									"numinlets" : 1,
									"numoutlets" : 3,
									"outlettype" : [ "int", "bang", "int" ],
									"patching_rect" : [ 67.821503, 204.313141, 46.0, 19.0 ],
									"text" : "t 1 b 0"
								}

							}
, 							{
								"box" : 								{
									"fontname" : "Verdana",
									"fontsize" : 10.0,
									"hidden" : 1,
									"id" : "obj-5",
									"maxclass" : "newobj",
									"numinlets" : 2,
									"numoutlets" : 1,
									"outlettype" : [ "" ],
									"patching_rect" : [ 67.821503, 231.313141, 52.0, 19.0 ],
									"text" : "gate 1 1"
								}

							}
, 							{
								"box" : 								{
									"bgcolor" : [ 0.913725, 0.913725, 0.913725, 0.0 ],
									"id" : "obj-6",
									"maxclass" : "button",
									"numinlets" : 1,
									"numoutlets" : 1,
									"outlettype" : [ "bang" ],
									"outlinecolor" : [ 0.501961, 0.501961, 0.501961, 1.0 ],
									"patching_rect" : [ 37.821507, 213.313141, 19.0, 19.0 ],
									"presentation" : 1,
									"presentation_rect" : [ 39.495735, 17.753286, 18.0, 18.0 ]
								}

							}
, 							{
								"box" : 								{
									"fontname" : "Verdana",
									"fontsize" : 10.0,
									"hidden" : 1,
									"id" : "obj-8",
									"linecount" : 2,
									"maxclass" : "newobj",
									"numinlets" : 1,
									"numoutlets" : 3,
									"outlettype" : [ "", "", "" ],
									"patching_rect" : [ 121.821503, 211.313141, 413.0, 31.0 ],
									"text" : "jcom.parameter a_bang @type generic @repetitions/allow 1 @ramp/drive none @priority 1 @description \"a bang\"",
									"varname" : "foot/switch"
								}

							}
, 							{
								"box" : 								{
									"fontname" : "Verdana",
									"fontsize" : 10.0,
									"hidden" : 1,
									"id" : "obj-50",
									"maxclass" : "comment",
									"numinlets" : 1,
									"numoutlets" : 0,
									"patching_rect" : [ 125.0, 180.0, 233.0, 19.0 ],
									"text" : "Additional parameters can be defined here"
								}

							}
, 							{
								"box" : 								{
									"bgcolor" : [ 0.188235, 0.188235, 0.188235, 1.0 ],
									"fontname" : "Verdana",
									"fontsize" : 10.0,
									"frgb" : [ 1.0, 1.0, 1.0, 1.0 ],
									"id" : "obj-1",
									"maxclass" : "comment",
									"numinlets" : 1,
									"numoutlets" : 0,
									"patching_rect" : [ 36.0, 18.0, 290.0, 19.0 ],
									"text" : "as a good example for panel, see jmod.bcf2000.maxpat",
									"textcolor" : [ 1.0, 1.0, 1.0, 1.0 ]
								}

							}
, 							{
								"box" : 								{
									"fontname" : "Verdana",
									"fontsize" : 10.0,
									"hidden" : 1,
									"id" : "obj-26",
									"linecount" : 2,
									"maxclass" : "message",
									"numinlets" : 2,
									"numoutlets" : 1,
									"outlettype" : [ "" ],
									"patching_rect" : [ 117.578354, 282.328125, 109.0, 29.0 ],
									"presentation" : 1,
									"presentation_linecount" : 2,
									"presentation_rect" : [ 120.961182, 24.758301, 109.0, 29.0 ],
									"text" : "window flags grow, window exec"
								}

							}
, 							{
								"box" : 								{
									"fontname" : "Verdana",
									"fontsize" : 10.0,
									"hidden" : 1,
									"id" : "obj-27",
									"linecount" : 2,
									"maxclass" : "message",
									"numinlets" : 2,
									"numoutlets" : 1,
									"outlettype" : [ "" ],
									"patching_rect" : [ 132.512863, 323.29538, 360.0, 29.0 ],
									"presentation" : 1,
									"presentation_linecount" : 2,
									"presentation_rect" : [ 119.825417, 64.780228, 360.0, 29.0 ],
									"text" : "window size 400 200 1100 700, window flags nogrow, window exec, savewindow 1"
								}

							}
, 							{
								"box" : 								{
									"fontname" : "Verdana",
									"fontsize" : 10.0,
									"hidden" : 1,
									"id" : "obj-30",
									"maxclass" : "newobj",
									"numinlets" : 1,
									"numoutlets" : 1,
									"outlettype" : [ "front" ],
									"patcher" : 									{
										"fileversion" : 1,
										"rect" : [ 840.0, 548.0, 600.0, 426.0 ],
										"bglocked" : 0,
										"defrect" : [ 840.0, 548.0, 600.0, 426.0 ],
										"openrect" : [ 0.0, 0.0, 0.0, 0.0 ],
										"openinpresentation" : 0,
										"default_fontsize" : 10.0,
										"default_fontface" : 0,
										"default_fontname" : "Verdana",
										"gridonopen" : 0,
										"gridsize" : [ 5.0, 5.0 ],
										"gridsnaponopen" : 0,
										"toolbarvisible" : 1,
										"boxanimatetime" : 200,
										"imprint" : 0,
										"enablehscroll" : 1,
										"enablevscroll" : 1,
										"devicewidth" : 0.0,
										"boxes" : [ 											{
												"box" : 												{
													"fontname" : "Verdana",
													"fontsize" : 10.0,
													"id" : "obj-2",
													"maxclass" : "newobj",
													"numinlets" : 1,
													"numoutlets" : 2,
													"outlettype" : [ "", "" ],
													"patching_rect" : [ 50.0, 50.0, 144.0, 19.0 ],
													"text" : "jcom.oscroute /view/panel"
												}

											}
, 											{
												"box" : 												{
													"fontname" : "Verdana",
													"fontsize" : 10.0,
													"id" : "obj-3",
													"maxclass" : "newobj",
													"numinlets" : 1,
													"numoutlets" : 1,
													"outlettype" : [ "front" ],
													"patching_rect" : [ 50.0, 92.0, 40.0, 19.0 ],
													"text" : "t front"
												}

											}
, 											{
												"box" : 												{
													"comment" : "",
													"id" : "obj-4",
													"maxclass" : "inlet",
													"numinlets" : 0,
													"numoutlets" : 1,
													"outlettype" : [ "" ],
													"patching_rect" : [ 50.0, 30.0, 15.0, 15.0 ]
												}

											}
, 											{
												"box" : 												{
													"comment" : "",
													"id" : "obj-5",
													"maxclass" : "outlet",
													"numinlets" : 1,
													"numoutlets" : 0,
													"patching_rect" : [ 50.0, 114.0, 15.0, 15.0 ]
												}

											}
 ],
										"lines" : [ 											{
												"patchline" : 												{
													"destination" : [ "obj-3", 0 ],
													"hidden" : 0,
													"midpoints" : [  ],
													"source" : [ "obj-2", 0 ]
												}

											}
, 											{
												"patchline" : 												{
													"destination" : [ "obj-5", 0 ],
													"hidden" : 0,
													"midpoints" : [  ],
													"source" : [ "obj-3", 0 ]
												}

											}
, 											{
												"patchline" : 												{
													"destination" : [ "obj-2", 0 ],
													"hidden" : 0,
													"midpoints" : [  ],
													"source" : [ "obj-4", 0 ]
												}

											}
 ]
									}
,
									"patching_rect" : [ 30.0, 280.0, 42.0, 19.0 ],
									"saved_object_attributes" : 									{
										"fontname" : "Verdana",
										"default_fontface" : 0,
										"globalpatchername" : "",
										"default_fontname" : "Verdana",
										"fontface" : 0,
										"fontsize" : 10.0,
										"default_fontsize" : 10.0
									}
,
									"text" : "p front"
								}

							}
, 							{
								"box" : 								{
									"fontname" : "Verdana",
									"fontsize" : 10.0,
									"hidden" : 1,
									"id" : "obj-34",
									"maxclass" : "newobj",
									"numinlets" : 1,
									"numoutlets" : 2,
									"outlettype" : [ "", "" ],
									"patching_rect" : [ 30.032738, 402.327393, 65.0, 19.0 ],
									"save" : [ "#N", "thispatcher", ";", "#Q", "savewindow", 1, ";", "#Q", "end", ";" ],
									"text" : "thispatcher"
								}

							}
, 							{
								"box" : 								{
									"comment" : "",
									"hidden" : 1,
									"id" : "obj-35",
									"maxclass" : "inlet",
									"numinlets" : 0,
									"numoutlets" : 1,
									"outlettype" : [ "" ],
									"patching_rect" : [ 30.0, 262.0, 15.0, 15.0 ]
								}

							}
, 							{
								"box" : 								{
									"fontname" : "Verdana",
									"fontsize" : 10.0,
									"hidden" : 1,
									"id" : "obj-36",
									"maxclass" : "newobj",
									"numinlets" : 4,
									"numoutlets" : 0,
									"patching_rect" : [ 148.038651, 407.505981, 94.0, 19.0 ],
									"text" : "bgcolor 48 48 48"
								}

							}
, 							{
								"box" : 								{
									"bgcolor" : [ 0.188235, 0.188235, 0.188235, 1.0 ],
									"border" : 1,
									"bordercolor" : [ 0.517647, 0.517647, 0.517647, 1.0 ],
									"id" : "obj-40",
									"maxclass" : "panel",
									"numinlets" : 1,
									"numoutlets" : 0,
									"patching_rect" : [ 36.0, 59.0, 106.0, 60.0 ],
									"presentation" : 1,
									"presentation_rect" : [ -1.0, -2.0, 106.0, 60.0 ],
									"rounded" : 0
								}

							}
 ],
						"lines" : [ 							{
								"patchline" : 								{
									"destination" : [ "obj-5", 0 ],
									"hidden" : 1,
									"midpoints" : [  ],
									"source" : [ "obj-20", 2 ]
								}

							}
, 							{
								"patchline" : 								{
									"destination" : [ "obj-5", 0 ],
									"hidden" : 1,
									"midpoints" : [  ],
									"source" : [ "obj-20", 0 ]
								}

							}
, 							{
								"patchline" : 								{
									"destination" : [ "obj-6", 0 ],
									"hidden" : 1,
									"midpoints" : [  ],
									"source" : [ "obj-20", 1 ]
								}

							}
, 							{
								"patchline" : 								{
									"destination" : [ "obj-34", 0 ],
									"hidden" : 1,
									"midpoints" : [ 127.078354, 331.0, 39.532738, 331.0 ],
									"source" : [ "obj-26", 0 ]
								}

							}
, 							{
								"patchline" : 								{
									"destination" : [ "obj-34", 0 ],
									"hidden" : 1,
									"midpoints" : [  ],
									"source" : [ "obj-27", 0 ]
								}

							}
, 							{
								"patchline" : 								{
									"destination" : [ "obj-34", 0 ],
									"hidden" : 1,
									"midpoints" : [  ],
									"source" : [ "obj-30", 0 ]
								}

							}
, 							{
								"patchline" : 								{
									"destination" : [ "obj-30", 0 ],
									"hidden" : 1,
									"midpoints" : [  ],
									"source" : [ "obj-35", 0 ]
								}

							}
, 							{
								"patchline" : 								{
									"destination" : [ "obj-8", 0 ],
									"hidden" : 1,
									"midpoints" : [  ],
									"source" : [ "obj-5", 0 ]
								}

							}
, 							{
								"patchline" : 								{
									"destination" : [ "obj-5", 1 ],
									"hidden" : 1,
									"midpoints" : [  ],
									"source" : [ "obj-6", 0 ]
								}

							}
, 							{
								"patchline" : 								{
									"destination" : [ "obj-20", 0 ],
									"hidden" : 1,
									"midpoints" : [  ],
									"source" : [ "obj-8", 0 ]
								}

							}
 ]
					}
,
					"patching_rect" : [ 157.0, 591.0, 50.0, 19.0 ],
					"saved_object_attributes" : 					{
						"fontname" : "Verdana",
						"default_fontface" : 0,
						"globalpatchername" : "",
						"default_fontname" : "Verdana",
						"fontface" : 0,
						"fontsize" : 10.0,
						"default_fontsize" : 10.0
					}
,
					"text" : "p panel"
				}

			}
, 			{
				"box" : 				{
					"fontname" : "Verdana",
					"fontsize" : 10.0,
					"id" : "obj-24",
					"maxclass" : "newobj",
					"numinlets" : 1,
					"numoutlets" : 2,
					"outlettype" : [ "", "" ],
					"patching_rect" : [ 37.0, 541.0, 56.0, 19.0 ],
					"text" : "jcom.in"
				}

			}
, 			{
				"box" : 				{
					"fontname" : "Verdana",
					"fontsize" : 10.0,
					"id" : "obj-33",
					"maxclass" : "newobj",
					"numinlets" : 1,
					"numoutlets" : 1,
					"outlettype" : [ "" ],
					"patching_rect" : [ 37.0, 591.0, 103.0, 19.0 ],
					"text" : "jalg.bds.trajectory"
				}

			}
, 			{
				"box" : 				{
					"fontname" : "Verdana",
					"fontsize" : 10.0,
					"id" : "obj-37",
					"maxclass" : "newobj",
					"numinlets" : 1,
					"numoutlets" : 2,
					"outlettype" : [ "", "" ],
					"patching_rect" : [ 13.0, 198.0, 578.0, 19.0 ],
					"text" : "jcom.hub @module_type control @description \"This module creates a trajectory for jmod.presetmixpad module\"",
					"varname" : "jcom.hub"
				}

			}
, 			{
				"box" : 				{
					"comment" : "message",
					"id" : "obj-38",
					"maxclass" : "inlet",
					"numinlets" : 0,
					"numoutlets" : 1,
					"outlettype" : [ "" ],
					"patching_rect" : [ 13.0, 106.0, 22.0, 22.0 ]
				}

			}
, 			{
				"box" : 				{
					"comment" : "message",
					"id" : "obj-39",
					"maxclass" : "outlet",
					"numinlets" : 1,
					"numoutlets" : 0,
					"patching_rect" : [ 13.0, 248.0, 22.0, 22.0 ]
				}

			}
, 			{
				"box" : 				{
					"fontname" : "Verdana",
					"fontsize" : 10.0,
					"id" : "obj-41",
					"maxclass" : "message",
					"numinlets" : 2,
					"numoutlets" : 1,
					"outlettype" : [ "" ],
					"patching_rect" : [ 232.0, 577.0, 220.0, 17.0 ],
					"text" : "/view/size 300 70"
				}

			}
, 			{
				"box" : 				{
					"has_panel" : 1,
					"id" : "obj-16",
					"maxclass" : "jcom.ui",
					"numinlets" : 1,
					"numoutlets" : 1,
					"outlettype" : [ "" ],
					"presentation" : 1,
					"presentation_rect" : [ 0.0, 0.0, 300.0, 105.0 ],
					"text" : "/editing_this_module"
				}

			}
, 			{
				"box" : 				{
					"fontname" : "Verdana",
					"fontsize" : 10.0,
					"id" : "obj-1",
					"maxclass" : "newobj",
					"numinlets" : 1,
					"numoutlets" : 3,
					"outlettype" : [ "", "", "" ],
					"patching_rect" : [ 477.0, 237.0, 571.0, 19.0 ],
					"text" : "jcom.message start @type none @range/clipmode both @repetitions/allow 1 @description \"triggers trajectory\"",
					"varname" : "parameter"
				}

			}
, 			{
				"box" : 				{
					"fontname" : "Verdana",
					"fontsize" : 10.0,
					"id" : "obj-12",
					"linecount" : 2,
					"maxclass" : "newobj",
					"numinlets" : 1,
					"numoutlets" : 3,
					"outlettype" : [ "", "", "" ],
					"patching_rect" : [ 481.0, 274.0, 568.0, 31.0 ],
					"text" : "jcom.parameter time @type decimal @range/bounds 0. 1000. @range/clipmode none @ramp/drive scheduler @dataspace none @dataspace/unit/native speed @priority 1 @description \"trajectory duration\"",
					"varname" : "time"
				}

			}
, 			{
				"box" : 				{
					"fontname" : "Verdana",
					"fontsize" : 10.0,
					"id" : "obj-17",
					"linecount" : 2,
					"maxclass" : "newobj",
					"numinlets" : 1,
					"numoutlets" : 3,
					"outlettype" : [ "", "", "" ],
					"patching_rect" : [ 483.0, 308.0, 558.0, 31.0 ],
					"text" : "jcom.parameter freq @type decimal @range/bounds 0. 1000. @range/clipmode low @ramp/drive scheduler @dataspace none @dataspace/unit/native speed @priority 1 @description \"horizontal sinusoidal waving\"",
					"varname" : "freq"
				}

			}
, 			{
				"box" : 				{
					"fontname" : "Verdana",
					"fontsize" : 10.0,
					"id" : "obj-21",
					"linecount" : 2,
					"maxclass" : "newobj",
					"numinlets" : 1,
					"numoutlets" : 3,
					"outlettype" : [ "", "", "" ],
					"patching_rect" : [ 484.0, 350.0, 563.0, 31.0 ],
					"text" : "jcom.parameter accel @type decimal @range/bounds 0. 1000. @range/clipmode low @ramp/drive scheduler @dataspace none @dataspace/unit/native speed @priority 1 @description \"vertical sigmoid acceleration\"",
					"varname" : "accel"
				}

			}
, 			{
				"box" : 				{
					"fontname" : "Verdana",
					"fontsize" : 10.0,
					"id" : "obj-27",
					"linecount" : 2,
					"maxclass" : "newobj",
					"numinlets" : 1,
					"numoutlets" : 3,
					"outlettype" : [ "", "", "" ],
					"patching_rect" : [ 484.0, 398.0, 567.0, 31.0 ],
					"text" : "jcom.parameter size/x @type decimal @range/bounds 0. 1920. @range/clipmode low @ramp/drive scheduler @dataspace none @dataspace/unit/native speed @priority 0 @description \"Mixpad x resolution\"",
					"varname" : "size/x"
				}

			}
, 			{
				"box" : 				{
					"fontname" : "Verdana",
					"fontsize" : 10.0,
					"id" : "obj-30",
					"linecount" : 2,
					"maxclass" : "newobj",
					"numinlets" : 1,
					"numoutlets" : 3,
					"outlettype" : [ "", "", "" ],
					"patching_rect" : [ 483.0, 438.0, 567.0, 31.0 ],
					"text" : "jcom.parameter size/y @type decimal @range/bounds 0. 1080. @range/clipmode low @ramp/drive scheduler @dataspace none @dataspace/unit/native speed @priority 0 @description \"Mixpad y resolution\"",
					"varname" : "size/y"
				}

			}
, 			{
				"box" : 				{
					"fontname" : "Verdana",
					"fontsize" : 10.0,
					"id" : "obj-36",
					"linecount" : 3,
					"maxclass" : "newobj",
					"numinlets" : 1,
					"numoutlets" : 3,
					"outlettype" : [ "", "", "" ],
					"patching_rect" : [ 484.0, 483.0, 589.0, 43.0 ],
					"text" : "jcom.parameter rate @type decimal @range/bounds 0. 100. @range/clipmode low @ramp/drive scheduler @dataspace none @dataspace/unit/native speed @priority 1 @description \"time between two points in trajectory\" @repetitions/allow 0",
					"varname" : "rate"
				}

			}
, 			{
				"box" : 				{
					"fontname" : "Verdana",
					"fontsize" : 10.0,
					"id" : "obj-45",
					"linecount" : 3,
					"maxclass" : "newobj",
					"numinlets" : 1,
					"numoutlets" : 2,
					"outlettype" : [ "", "" ],
					"patching_rect" : [ 37.0, 631.0, 546.0, 43.0 ],
					"text" : "jcom.return position/xy @type array @range/bounds 0. 1920. @range/clipmode low @dataspace position @dataspace/unit/native xy @description \"x and y coordinates of the trajectory as a list of two values\" @repetitions/allow 1",
					"varname" : "position/xy"
				}

			}
 ],
		"lines" : [ 			{
				"patchline" : 				{
					"destination" : [ "obj-9", 0 ],
					"hidden" : 0,
					"midpoints" : [  ],
					"source" : [ "obj-1", 0 ]
				}

			}
, 			{
				"patchline" : 				{
					"destination" : [ "obj-14", 0 ],
					"hidden" : 0,
					"midpoints" : [  ],
					"source" : [ "obj-12", 0 ]
				}

			}
, 			{
				"patchline" : 				{
					"destination" : [ "obj-3", 0 ],
					"hidden" : 0,
					"midpoints" : [  ],
					"source" : [ "obj-13", 0 ]
				}

			}
, 			{
				"patchline" : 				{
					"destination" : [ "obj-12", 0 ],
					"hidden" : 0,
					"midpoints" : [  ],
					"source" : [ "obj-14", 0 ]
				}

			}
, 			{
				"patchline" : 				{
					"destination" : [ "obj-19", 0 ],
					"hidden" : 0,
					"midpoints" : [  ],
					"source" : [ "obj-17", 0 ]
				}

			}
, 			{
				"patchline" : 				{
					"destination" : [ "obj-17", 0 ],
					"hidden" : 0,
					"midpoints" : [  ],
					"source" : [ "obj-19", 0 ]
				}

			}
, 			{
				"patchline" : 				{
					"destination" : [ "obj-25", 0 ],
					"hidden" : 0,
					"midpoints" : [  ],
					"source" : [ "obj-21", 0 ]
				}

			}
, 			{
				"patchline" : 				{
					"destination" : [ "obj-33", 0 ],
					"hidden" : 0,
					"midpoints" : [  ],
					"source" : [ "obj-24", 0 ]
				}

			}
, 			{
				"patchline" : 				{
					"destination" : [ "obj-41", 1 ],
					"hidden" : 0,
					"midpoints" : [ 46.5, 572.5, 442.5, 572.5 ],
					"source" : [ "obj-24", 0 ]
				}

			}
, 			{
				"patchline" : 				{
					"destination" : [ "obj-42", 0 ],
					"hidden" : 0,
					"midpoints" : [ 46.5, 572.5, 166.5, 572.5 ],
					"source" : [ "obj-24", 0 ]
				}

			}
, 			{
				"patchline" : 				{
					"destination" : [ "obj-21", 0 ],
					"hidden" : 0,
					"midpoints" : [  ],
					"source" : [ "obj-25", 0 ]
				}

			}
, 			{
				"patchline" : 				{
					"destination" : [ "obj-29", 0 ],
					"hidden" : 0,
					"midpoints" : [  ],
					"source" : [ "obj-27", 0 ]
				}

			}
, 			{
				"patchline" : 				{
					"destination" : [ "obj-27", 0 ],
					"hidden" : 0,
					"midpoints" : [  ],
					"source" : [ "obj-29", 0 ]
				}

			}
, 			{
				"patchline" : 				{
					"destination" : [ "obj-13", 0 ],
					"hidden" : 0,
					"midpoints" : [  ],
					"source" : [ "obj-3", 0 ]
				}

			}
, 			{
				"patchline" : 				{
					"destination" : [ "obj-32", 0 ],
					"hidden" : 0,
					"midpoints" : [  ],
					"source" : [ "obj-30", 0 ]
				}

			}
, 			{
				"patchline" : 				{
					"destination" : [ "obj-30", 0 ],
					"hidden" : 0,
					"midpoints" : [  ],
					"source" : [ "obj-32", 0 ]
				}

			}
, 			{
				"patchline" : 				{
					"destination" : [ "obj-45", 0 ],
					"hidden" : 0,
					"midpoints" : [  ],
					"source" : [ "obj-33", 0 ]
				}

			}
, 			{
				"patchline" : 				{
					"destination" : [ "obj-43", 0 ],
					"hidden" : 0,
					"midpoints" : [  ],
					"source" : [ "obj-36", 0 ]
				}

			}
, 			{
				"patchline" : 				{
					"destination" : [ "obj-39", 0 ],
					"hidden" : 0,
					"midpoints" : [  ],
					"source" : [ "obj-37", 0 ]
				}

			}
, 			{
				"patchline" : 				{
					"destination" : [ "obj-37", 0 ],
					"hidden" : 0,
					"midpoints" : [  ],
					"source" : [ "obj-38", 0 ]
				}

			}
, 			{
				"patchline" : 				{
					"destination" : [ "obj-36", 0 ],
					"hidden" : 0,
					"midpoints" : [  ],
					"source" : [ "obj-43", 0 ]
				}

			}
, 			{
				"patchline" : 				{
					"destination" : [ "obj-37", 0 ],
					"hidden" : 0,
					"midpoints" : [  ],
					"source" : [ "obj-6", 0 ]
				}

			}
, 			{
				"patchline" : 				{
					"destination" : [ "obj-37", 0 ],
					"hidden" : 0,
					"midpoints" : [  ],
					"source" : [ "obj-7", 0 ]
				}

			}
, 			{
				"patchline" : 				{
					"destination" : [ "obj-37", 0 ],
					"hidden" : 0,
					"midpoints" : [  ],
					"source" : [ "obj-8", 0 ]
				}

			}
, 			{
				"patchline" : 				{
					"destination" : [ "obj-1", 0 ],
					"hidden" : 0,
					"midpoints" : [  ],
					"source" : [ "obj-9", 0 ]
				}

			}
 ]
	}

}
